<svg id="_x33_0" enable-background="new 0 0 64 64" height="512" viewBox="0 0 64 64" width="512" xmlns="http://www.w3.org/2000/svg"><g><g><g><path d="m34 56 2 6h-8l2-6z" fill="#ff826e"/></g><g><path d="m35.81 52.63-1.81 3.37h-4l-1.81-3.37 3.81-1.63z" fill="#fc6e51"/></g><g><path d="m19 62h-8v-3.1c0-2.52.88-4.96 2.5-6.9.8-.97 1.77-1.78 2.84-2.41 1.08-.63 2.26-1.07 3.51-1.29l3.15-.57 2 6.27 3.19-1.37 1.81 3.37-2 6z" fill="#fcd770"/></g><g><path d="m45 62h-9l-2-6 1.81-3.37 3.19 1.37 2-6.27 3.15.57c2.49.45 4.74 1.76 6.35 3.7.81.97 1.44 2.06 1.86 3.23s.64 2.41.64 3.67v3.1z" fill="#fcd770"/></g><g><path d="m32 51-3.81 1.63-3.19 1.37-2-6.27 4-.73z" fill="#ffc729"/></g><g><path d="m41 47.73-2 6.27-3.19-1.37-3.81-1.63 5-4z" fill="#ffc729"/></g><g><path d="m51.06 8.84-3.6 2.25c-4.32-3.2-9.67-5.09-15.46-5.09-7.18 0-13.68 2.91-18.38 7.62-4.71 4.7-7.62 11.2-7.62 18.38v2h-4v-2c0-8.28 3.36-15.78 8.79-21.21s12.93-8.79 21.21-8.79c7.24 0 13.88 2.56 19.06 6.84z" fill="#ccd1d9"/></g><g><path d="m62 32v2h-4v-2c0-7.01-2.78-13.38-7.29-18.05l1.81-3.83c5.84 5.47 9.48 13.25 9.48 21.88z" fill="#ccd1d9"/></g><g><path d="m32 6v8h-1.95c-6.66 0-12.05 5.39-12.05 12.05 0 1.29.21 2.58.62 3.8l.32.97c-.58.55-.94 1.32-.94 2.18 0 .35.06.69.18 1h-.01-12.17v-2c0-7.18 2.91-13.68 7.62-18.38 4.7-4.71 11.2-7.62 18.38-7.62z" fill="#69d6f4"/></g><g><path d="m47.46 11.09-7.36 4.6c-1.8-1.07-3.9-1.69-6.15-1.69h-1.95v-8c5.79 0 11.14 1.89 15.46 5.09z" fill="#69d6f4"/></g><g><path d="m58 34h-12.17-.01c.12-.31.18-.65.18-1 0-.86-.36-1.63-.94-2.18l.32-.97c.41-1.22.62-2.51.62-3.8 0-.63-.05-1.25-.14-1.86l4.85-10.24c4.51 4.67 7.29 11.04 7.29 18.05z" fill="#69d6f4"/></g><g><path d="m51.06 8.84 2.94-1.84-1.48 3.12-1.81 3.83-4.85 10.24c-.4-2.58-1.62-4.89-3.39-6.66-.71-.71-1.5-1.33-2.37-1.84l7.36-4.6z" fill="#ff826e"/></g><g><path d="m42 26c0 1.1-.9 2-2 2h-7c-.83 0-1.58-.34-2.12-.88-.01-.01-.03-.03-.04-.04l-.05.03c-1.18.58-2.47.89-3.79.89-.83 0-1.58-.34-2.12-.88s-.88-1.29-.88-2.12c-1.28 1.28-2 3.02-2 4.83v.17h-1c-.8 0-1.53.32-2.06.82l-.32-.97c-.41-1.22-.62-2.51-.62-3.8 0-6.66 5.39-12.05 12.05-12.05h1.95 1.95c2.25 0 4.35.62 6.15 1.69.87.51 1.66 1.13 2.37 1.84 1.77 1.77 2.99 4.08 3.39 6.66.09.61.14 1.23.14 1.86 0 1.29-.21 2.58-.62 3.8l-.32.97c-.53-.5-1.26-.82-2.06-.82h-1z" fill="#656d78"/></g><g><path d="m36.05 44.15.95 2.85-5 4-5-4 .95-2.85v-.01c1.24.55 2.61.86 4.05.86s2.81-.31 4.05-.86z" fill="#f0d0b4"/></g><g><path d="m46 33c0 .35-.06.69-.18 1-.14.43-.39.81-.7 1.12-.54.54-1.29.88-2.12.88h-1.05c.03-.33.05-.66.05-1v-5h1c.8 0 1.53.32 2.06.82.58.55.94 1.32.94 2.18z" fill="#f0d0b4"/></g><g><path d="m42 30v5c0 .34-.02.67-.05 1-.36 3.65-2.68 6.72-5.9 8.14-1.24.55-2.61.86-4.05.86s-2.81-.31-4.05-.86c-1.14-.5-2.16-1.21-3.02-2.07-1.59-1.59-2.65-3.71-2.88-6.07-.03-.33-.05-.66-.05-1v-5-.17c0-1.81.72-3.55 2-4.83 0 .83.34 1.58.88 2.12s1.29.88 2.12.88c1.32 0 2.61-.31 3.79-.89l.05-.03.04.04c.54.54 1.29.88 2.12.88h7c1.1 0 2-.9 2-2z" fill="#f0d0b4"/></g><g><path d="m22.05 36h-1.05c-.83 0-1.58-.34-2.12-.88-.31-.31-.56-.69-.7-1.12-.12-.31-.18-.65-.18-1 0-.86.36-1.63.94-2.18.53-.5 1.26-.82 2.06-.82h1v5c0 .34.02.67.05 1z" fill="#f0d0b4"/></g><g><circle cx="8" cy="44" fill="#ccd1d9" r="6"/></g><g><circle cx="56" cy="44" fill="#ccd1d9" r="6"/></g></g><g><path d="m31 31h-2c0 .552-.448 1-1 1s-1-.448-1-1h-2c0 1.654 1.346 3 3 3s3-1.346 3-3z"/><path d="m36 32c-.552 0-1-.448-1-1h-2c0 1.654 1.346 3 3 3s3-1.346 3-3h-2c0 .552-.448 1-1 1z"/><path d="m35 37.838c-.432 1.293-1.637 2.162-3 2.162s-2.568-.869-3-2.164l-.052-.154-1.896.637.052.152c.703 2.111 2.67 3.529 4.896 3.529s4.193-1.418 4.896-3.527l.052-.154-1.896-.637z"/><path d="m53.73 9.905 2.635-5.562-5.235 3.272c-5.437-4.268-12.197-6.615-19.13-6.615-17.094 0-31 13.906-31 31v3h16.556c.694 1.19 1.97 2 3.444 2h.191c.609 3.299 2.688 6.088 5.538 7.651l-.491 1.471-6.57 1.195c-2.711.493-5.175 1.93-6.939 4.046-1.76 2.112-2.729 4.788-2.729 7.537v4.1h44v-4.1c0-2.749-.969-5.426-2.729-7.537-1.765-2.116-4.229-3.553-6.939-4.046l-6.57-1.195-.491-1.471c2.85-1.563 4.929-4.352 5.538-7.651h.191c1.474 0 2.75-.81 3.444-2h16.556v-3c0-8.286-3.375-16.292-9.27-22.095zm-10.73 16.095c0-1.654-1.346-3-3-3h-3v2h3c.552 0 1 .448 1 1s-.448 1-1 1h-7c-1.103 0-2-.897-2-2s.897-2 2-2v-2c-2.206 0-4 1.794-4 4 0 .574.127 1.118.345 1.612-.756.25-1.55.388-2.345.388-1.103 0-2-.897-2-2s.897-2 2-2v-2c-2.058 0-3.738 1.568-3.956 3.569-1.112 1.226-1.818 2.789-1.996 4.431h-.048c-.532 0-1.038.109-1.502.298-.326-1.056-.498-2.148-.498-3.253 0-6.09 4.955-11.045 11.045-11.045h3.91c6.09 0 11.045 4.955 11.045 11.045 0 1.105-.172 2.198-.498 3.253-.464-.189-.97-.298-1.502-.298zm-10-18.961c4.531.177 8.849 1.548 12.627 4.015l-5.559 3.474c-1.825-.972-3.904-1.528-6.113-1.528h-.955zm8.915 8.694 9.72-6.075-5.53 11.673c-.868-2.228-2.328-4.157-4.19-5.598zm-38.915 16.267c0-15.99 13.01-29 29-29 6.24 0 12.319 2.05 17.301 5.758l-1.823 1.139c-4.551-3.195-9.882-4.897-15.478-4.897-14.888 0-27 12.112-27 27v1h-2zm4 1v-1c0-13.45 10.677-24.447 24-24.975v5.975h-.955c-7.193 0-13.045 5.852-13.045 13.045 0 1.404.226 2.792.669 4.126l.145.436c-.504.669-.814 1.492-.814 2.393zm12 0c0-1.103.897-2 2-2v4c-1.103 0-2-.897-2-2zm7.73 15.065 3.341 2.673-4.454 1.909-1.32-4.14zm3.991 8.935h2.559l1.334 4h-5.226zm2.681-2h-2.805l-1.009-1.879 2.412-1.033 2.412 1.034zm-21.402 3.9c0-2.282.805-4.504 2.266-6.256 1.464-1.758 3.51-2.95 5.76-3.36l2.288-.416 2.068 6.484 3.361-1.44 1.172 2.181-1.635 4.907h-7.28v-4h-2v4h-6zm37.734-6.255c1.461 1.751 2.266 3.973 2.266 6.255v2.1h-6v-4h-2v4h-7.28l-1.635-4.907 1.172-2.181 3.361 1.44 2.068-6.484 2.288.416c2.251.41 4.297 1.603 5.76 3.361zm-10.033-4.138-1.32 4.14-4.454-1.909 3.341-2.673zm-3.87-1.853-3.831 3.065-3.831-3.065.403-1.208c1.08.355 2.23.554 3.428.554s2.348-.199 3.428-.554zm-3.831-2.654c-4.963 0-9-4.037-9-9v-5.172c0-.926.23-1.839.649-2.658.714 1.099 1.946 1.83 3.351 1.83 1.247 0 2.492-.267 3.672-.76.658.473 1.458.76 2.328.76h7c.352 0 .686-.072 1-.184v6.184c0 4.963-4.037 9-9 9zm11-9v-4c1.103 0 2 .897 2 2s-.897 2-2 2zm3.186-4.393.145-.436c.443-1.334.669-2.722.669-4.126 0-.57-.049-1.128-.12-1.678l4.093-8.64c3.895 4.53 6.027 10.252 6.027 16.273v1h-10c0-.901-.31-1.724-.814-2.393zm14.814 2.393h-2v-1c0-6.798-2.52-13.243-7.098-18.235l.922-1.946c5.282 5.433 8.176 12.546 8.176 20.181z"/><path d="m57 41h-2v2h-2v2h2v2h2v-2h2v-2h-2z"/><path d="m56 37c-3.859 0-7 3.141-7 7s3.141 7 7 7 7-3.141 7-7-3.141-7-7-7zm0 12c-2.757 0-5-2.243-5-5s2.243-5 5-5 5 2.243 5 5-2.243 5-5 5z"/><path d="m5 43h6v2h-6z"/><path d="m15 44c0-3.859-3.141-7-7-7s-7 3.141-7 7 3.141 7 7 7 7-3.141 7-7zm-7 5c-2.757 0-5-2.243-5-5s2.243-5 5-5 5 2.243 5 5-2.243 5-5 5z"/></g></g></svg>